<svg xmlns="http://www.w3.org/2000/svg" width="444" height="439" viewBox="0 0 444 439" version="1.1"><path d="M 151.763 65.965 C 137.191 68.627, 135.854 69.749, 137.434 78.001 C 138.610 84.140, 138.740 84.351, 139.791 81.811 C 142.528 75.198, 152.603 74.859, 156.434 81.250 C 157.835 83.588, 158.999 84.825, 159.021 84 C 159.122 80.185, 160.876 86.128, 162.415 95.500 C 164.056 105.500, 164.056 105.500, 161.146 113 C 157.963 121.204, 157.995 121.307, 164.266 123.043 C 166.838 123.755, 169.197 123.764, 171.709 123.070 C 176.612 121.716, 177.217 122.594, 172.686 124.487 C 168.014 126.439, 163.056 126.406, 158.020 124.391 C 153.141 122.439, 153.132 122.256, 157.461 113.222 C 161.368 105.070, 160.532 104.156, 152.218 107.491 C 148.500 108.983, 148.500 108.983, 151.377 106.602 C 152.960 105.293, 153.946 103.722, 153.568 103.111 C 153.191 102.500, 153.358 102, 153.940 102 C 154.531 102, 154.889 100.453, 154.749 98.502 C 154.439 94.151, 151.999 93.819, 148.452 97.646 C 146.525 99.725, 146 99.930, 146 98.601 C 146 97.670, 147.105 95.805, 148.455 94.455 C 150.805 92.104, 152.825 91.562, 157.750 91.961 C 163.268 92.408, 157.944 87.453, 151.296 85.954 C 142.527 83.976, 139.910 88.992, 143.567 100.766 C 145.843 108.090, 145.971 109.880, 145.985 134.553 C 146.005 169.405, 146.071 169.517, 165.934 168.726 C 187.989 167.849, 199.150 164.453, 216.245 153.422 C 232.439 142.972, 235.700 138.900, 238.418 125.742 C 240.429 116.007, 240.430 116.015, 237.750 115.921 C 236.427 115.875, 237.837 115.027, 241.170 113.864 C 250.267 110.691, 256.791 100.026, 255.825 89.907 C 254.884 80.049, 233 90.212, 233 100.506 C 233 105.078, 232.706 105.997, 231.250 105.985 C 227.807 105.955, 227.240 104.504, 226.754 94.500 C 226.382 86.860, 225.764 83.565, 224.134 80.539 C 222.960 78.360, 222 75.997, 222 75.289 C 222 73.494, 221.415 73.645, 217.197 76.522 C 215.164 77.908, 211.826 79.314, 209.781 79.644 C 206.556 80.166, 206.192 80.489, 207.040 82.074 C 207.835 83.561, 206.968 83.350, 202.408 80.951 C 193.173 76.094, 182.877 77.006, 175.356 83.348 C 171.450 86.642, 171.378 86.639, 170.673 83.117 C 170.356 81.531, 169.818 79.125, 169.478 77.770 C 168.793 75.039, 174.147 72.010, 182.500 70.404 C 186.500 69.634, 186.500 69.634, 180.500 67.778 C 173.595 65.641, 158.688 64.701, 151.763 65.965 M 259 77.849 C 259 80.041, 259.517 82.006, 260.149 82.216 C 260.782 82.427, 261.344 84.696, 261.399 87.259 C 261.500 91.918, 261.500 91.918, 269 94.566 C 306.376 107.763, 337.474 135.611, 355.470 172 C 365.617 192.520, 387.186 219.878, 385.426 209.997 C 376.877 161.992, 347.964 119.497, 306.479 93.963 C 293.403 85.915, 280.370 80.338, 260.750 74.395 C 259.287 73.952, 259 74.520, 259 77.849 M 67.354 87.993 C 58.731 91.472, 54.264 102.549, 57.570 112.253 C 59.141 116.862, 59.141 116.862, 53.479 126.669 C 48.145 135.908, 47.923 136.552, 49.658 137.778 C 50.671 138.494, 53.625 140.648, 56.222 142.565 C 61.563 146.506, 60.921 147.030, 69.385 131.810 C 73.040 125.238, 73.201 125.100, 78.563 123.987 C 87.391 122.154, 93.920 114.676, 93.978 106.332 C 94.024 99.657, 92.895 99.559, 89.307 105.926 C 85.884 112, 85.884 112, 79.442 112 C 75.899 112, 72.669 112.112, 72.265 112.250 C 69.257 113.272, 64 99.114, 66.079 95.591 C 67.272 93.569, 68.028 91.695, 67.759 91.426 C 67.042 90.708, 64.286 95.225, 63.066 99.120 C 62.007 102.500, 62.007 102.500, 62.515 99 C 63.071 95.173, 66.198 90.359, 67.881 90.740 C 68.464 90.872, 69.420 90.085, 70.005 88.990 C 71.157 86.838, 70.671 86.654, 67.354 87.993 M 188.252 87.662 C 187.461 87.981, 187.236 89.091, 187.637 90.690 C 188.040 92.296, 187.790 93.512, 186.950 94.031 C 185.884 94.690, 185.872 95.141, 186.888 96.365 C 187.967 97.666, 187.528 98.042, 183.824 98.991 C 174.015 101.504, 174.660 102.536, 185.033 100.927 C 189.051 100.304, 195.412 99.967, 199.169 100.179 C 202.926 100.392, 206 100.269, 206 99.908 C 206 99.092, 200.745 98, 196.818 98 C 193.988 98, 193.941 97.923, 195.443 95.777 C 198.909 90.829, 194.035 85.328, 188.252 87.662 M 125.878 96.825 C 110.903 106.619, 98.407 117.960, 87.101 132.023 C 75.271 146.736, 74.522 148.175, 76.605 152.201 C 78.754 156.355, 80.969 164.572, 80.999 168.500 C 81.018 171.077, 81.793 170.184, 86.496 162.163 C 98.704 141.341, 120.239 119.096, 138.471 108.477 C 140.116 107.519, 140.054 106.967, 137.484 99.727 C 134.239 90.587, 135.092 90.800, 125.878 96.825 M 194 117.487 C 194 117.754, 195.575 118.631, 197.500 119.436 C 208.940 124.215, 170.449 139.490, 157.947 135.131 C 153.086 133.437, 153.199 134.539, 158.153 137.157 C 168.238 142.485, 182.981 139.294, 196.927 128.766 C 200.222 126.278, 202.538 125.113, 202.774 125.823 C 203.377 127.632, 204.795 127.221, 205.488 125.038 C 206.390 122.195, 204.512 119.374, 200.872 118.105 C 197.588 116.960, 194 116.637, 194 117.487 M 33.813 139.750 C 30.360 143.355, 27 148.840, 27 150.873 C 27 152.420, 38.331 159.087, 39.922 158.476 C 48.518 155.178, 55.742 148.654, 53.175 146.506 C 40.583 135.967, 38.226 135.144, 33.813 139.750 M 231.500 148.139 C 222.867 156.645, 202.616 168.840, 193.364 171.104 C 190.689 171.759, 188.382 172.385, 188.237 172.494 C 186.758 173.612, 191.391 180.021, 193.287 179.481 C 198.469 178.003, 234.435 159.403, 237.855 156.431 C 238.476 155.892, 236.833 143.996, 236.152 144.099 C 235.793 144.153, 233.700 145.971, 231.500 148.139 M 54.675 155.619 C 42.283 163.658, 41.693 164.424, 45.293 167.806 C 51.242 173.395, 56.964 172.344, 64.429 164.293 C 68.584 159.812, 67.371 163.449, 63.043 168.450 C 57.371 175.004, 56.406 183.414, 60.762 188.330 C 62.049 189.783, 62.126 190.173, 61.061 189.833 C 58.559 189.035, 55.661 184.195, 55.070 179.827 C 54.500 175.614, 54.500 175.614, 49.257 183.603 C 46.374 187.998, 42.437 193.123, 40.507 194.993 C 35.377 199.966, 37.772 202.257, 51.091 205.113 C 54.486 205.841, 57.862 207.432, 60.157 209.386 C 80.672 226.856, 114.245 233.265, 143.382 225.275 C 149.263 223.663, 149.263 223.663, 148.717 216.440 C 147.583 201.450, 146.540 200.586, 129.450 200.477 C 109.695 200.352, 96.699 196.437, 82.737 186.407 C 78.569 183.412, 77.600 183.083, 76.233 184.194 C 74.855 185.313, 74.719 185.252, 75.277 183.762 C 78.035 176.401, 76.569 165.002, 71.603 155.203 C 67.515 147.135, 67.762 147.129, 54.675 155.619 M 271.625 156.554 C 261.828 158.501, 252.678 161.720, 250.091 164.130 C 247.113 166.904, 246.455 165.962, 249.059 162.653 C 251.833 159.126, 250.911 159.302, 243.718 163.671 C 227.535 173.502, 212.396 193.710, 209.450 209.413 C 208.822 212.763, 208.947 213.234, 210.324 212.706 C 211.766 212.152, 211.869 213.387, 211.326 224.795 C 209.735 258.221, 210.627 260.445, 226 261.379 C 231.775 261.730, 239.607 262.304, 243.404 262.653 C 250.308 263.289, 250.308 263.289, 249.648 259.989 C 246.139 242.443, 249.079 219.137, 257.443 198.197 C 260.759 189.894, 260.759 189.894, 257.964 190.508 C 255.774 190.989, 254.467 190.495, 251.931 188.230 C 248.694 185.337, 248.694 185.337, 252.097 185.333 C 253.969 185.330, 259.100 184.595, 263.500 183.698 C 267.900 182.801, 273.188 181.806, 275.250 181.488 C 279 180.909, 279 180.909, 279.021 175.205 C 279.034 171.737, 280.012 166.755, 281.517 162.500 C 282.878 158.650, 283.993 155.387, 283.996 155.250 C 284.006 154.656, 277.980 155.291, 271.625 156.554 M 286.500 158.345 C 281.743 169.730, 280.626 180.989, 284.250 181.017 C 309.494 181.212, 336.806 205.111, 335.356 225.736 C 334.690 235.212, 334.690 235.212, 337.795 233.606 C 343.590 230.609, 347.092 232.272, 348.449 238.663 C 349.075 241.609, 348.873 241.916, 345.528 243.126 C 340.491 244.947, 341.402 246.890, 348.544 249.560 C 356.953 252.703, 363.389 250.312, 365.250 243.354 C 366.292 239.459, 368 237.383, 368 240.013 C 368 241.173, 381.502 234.615, 382.527 232.957 C 386.508 226.515, 384.376 220.280, 374.792 210.331 C 369.582 204.924, 363.164 197.125, 360.530 193 C 345.771 169.895, 324.329 157.123, 297.262 155.317 C 288.023 154.700, 288.023 154.700, 286.500 158.345 M 24.214 161.971 C 18.513 170.679, 18.544 170.778, 29.175 177.672 C 37.394 183.001, 43.669 183.681, 46.385 179.535 C 48.430 176.415, 48.434 175, 46.400 175 C 43.944 175, 38.062 168.561, 37.374 165.118 C 36.924 162.870, 35.608 161.375, 32.452 159.525 C 27.120 156.400, 28.039 156.127, 24.214 161.971 M 17.152 176.241 C 13.976 186.498, 14.632 188.255, 23.278 192.639 C 29.219 195.652, 34.514 194.662, 39.035 189.694 C 42.669 185.700, 42.666 185.547, 38.950 185.287 C 35.233 185.026, 27.333 180.832, 22.065 176.324 C 18.161 172.982, 18.161 172.982, 17.152 176.241 M 178.033 184.750 C 171.423 193.582, 163.147 214.480, 165.376 216.710 C 168.868 220.201, 187.114 213.940, 189.034 208.593 C 191.825 200.816, 196.030 193.385, 202.182 185.358 C 204.863 181.861, 206.931 179.002, 206.778 179.005 C 206.625 179.007, 203.800 180.121, 200.500 181.481 C 191.400 185.230, 180.820 184.337, 183.473 180.044 C 185.701 176.439, 181.594 179.992, 178.033 184.750 M 163.971 193.039 C 163.162 193.550, 159.012 195.138, 154.750 196.566 C 150.488 197.995, 147 199.240, 147.001 199.332 C 147.001 199.424, 147.884 201.824, 148.964 204.664 C 150.043 207.505, 151.229 212.776, 151.598 216.378 C 152.539 225.565, 158.917 222.732, 160.452 212.445 C 160.858 209.725, 162.254 204.144, 163.555 200.043 C 166.128 191.926, 166.144 191.665, 163.971 193.039 M 10.494 201.750 C 3.943 212.895, 8.626 222.681, 18.383 218.235 C 23.269 216.009, 31.077 200.277, 27.588 199.690 C 25.889 199.404, 23.743 198.870, 22.818 198.504 C 21.596 198.021, 20.698 198.683, 19.542 200.919 C 18.666 202.614, 17.398 203.993, 16.724 203.985 C 15.940 203.975, 15.868 203.705, 16.523 203.235 C 20.080 200.680, 20.976 197.214, 18.499 195.591 C 15.174 193.413, 15.576 193.103, 10.494 201.750 M 50.645 215.250 C 45.061 253.655, 54.518 296.259, 75.981 329.391 C 82.959 340.162, 82.204 339.986, 90.371 332.751 C 95.242 328.436, 95.242 328.436, 90.746 321.468 C 74.200 295.823, 66.846 270.945, 66.413 239.148 C 66.163 220.795, 66.163 220.795, 62.332 218.231 C 60.224 216.820, 57.228 214.616, 55.673 213.333 C 51.832 210.162, 51.359 210.343, 50.645 215.250 M 402.757 227.656 C 399.689 228.928, 399.113 229.600, 399.560 231.383 C 400.189 233.888, 391.703 238.258, 388.061 237.306 C 386.978 237.022, 384.846 237.678, 383.300 238.770 C 381.760 239.857, 377.777 242.115, 374.450 243.787 C 370.723 245.659, 367.954 247.806, 367.238 249.377 C 364.769 254.796, 354.854 258.090, 348.723 255.529 C 345.473 254.171, 345.236 254.190, 345.642 255.779 C 346.222 258.054, 338.707 261.178, 333.374 260.878 C 324.017 260.351, 315 267.228, 315 274.889 C 315 290.073, 331.278 291.602, 357.845 278.914 C 378.437 269.080, 377.721 269.662, 375.566 264.503 C 371.555 254.905, 385.444 249.495, 389.721 258.989 C 391.699 263.380, 427.046 249.198, 426.154 244.371 C 423.655 230.842, 413.156 223.342, 402.757 227.656 M 426.737 248.596 C 426.410 248.924, 418.572 252.793, 409.321 257.194 C 400.069 261.596, 392.376 265.314, 392.225 265.457 C 392.074 265.600, 392.872 267.868, 393.998 270.496 C 396.583 276.525, 395.915 278.581, 390.522 281.202 C 385.065 283.853, 383.402 283.177, 380.819 277.262 C 379.676 274.643, 378.636 272.375, 378.509 272.222 C 378.382 272.069, 369.777 276.047, 359.389 281.061 C 338.972 290.915, 339.736 290.792, 320.264 287.354 C 308.938 285.354, 325.910 313.666, 338.013 316.963 C 348.264 319.755, 420.185 289.075, 436.247 275.058 C 436.832 274.548, 428.708 249.375, 427.602 248.269 C 427.454 248.121, 427.065 248.268, 426.737 248.596 M 382 257.713 C 378.321 259.075, 378.075 260.008, 380.128 264.798 C 381.227 267.362, 382.286 269.619, 382.482 269.815 C 382.832 270.165, 390 267.017, 390 266.513 C 390 266.371, 389.079 264.172, 387.953 261.627 C 385.961 257.123, 385.108 256.563, 382 257.713 M 359.604 320.635 C 352.713 324.146, 350.009 325.042, 347.604 324.607 C 344.739 324.090, 344.192 324.483, 340.500 329.718 C 301.269 385.345, 220.309 406.280, 156.009 377.424 C 149.886 374.676, 149.886 374.676, 143.990 380.510 C 137.113 387.315, 137.084 387.182, 146.370 391.472 C 222.038 426.423, 310.616 402.417, 357.804 334.171 C 362.041 328.042, 369.361 315.818, 368.654 316.051 C 368.569 316.078, 364.497 318.141, 359.604 320.635" stroke="none" fill="#d9a08e" fill-rule="evenodd"/><path d="M 173 2.553 C 154.489 6.522, 137.871 16.370, 134.568 25.327 C 132.975 29.647, 131 46.305, 131 55.426 C 131 60.639, 131 60.639, 122.750 66.255 C 102.592 79.977, 103.559 84.737, 127.399 89.130 C 131.576 89.899, 134.139 90.898, 134.545 91.915 C 139.556 104.485, 140.258 107.435, 138.483 108.469 C 120.226 119.110, 98.708 141.334, 86.496 162.163 C 81.793 170.184, 81.018 171.077, 80.999 168.500 C 80.948 161.767, 76.137 149.084, 71.859 144.406 C 68.641 140.887, 74.615 131.447, 81.521 129.140 C 96.855 124.017, 103.500 108.422, 96.411 94.196 C 93.099 87.551, 93.257 87.491, 87.982 97.423 C 83.823 105.255, 76.896 110.118, 74.589 106.825 C 69.917 100.155, 69.933 99.596, 75.065 90.841 C 81.157 80.448, 81.176 80.671, 74.250 81.193 C 57.726 82.438, 44.962 100.980, 51.848 113.736 C 52.893 115.671, 47.168 128.627, 43.376 132.911 C 43.176 133.137, 41.468 132.490, 39.580 131.473 C 32.862 127.855, 19.858 141.576, 21.342 150.718 C 21.783 153.435, 21.227 155.177, 18.598 159.313 C 12.064 169.595, 6.838 187.546, 9.839 189.401 C 10.531 189.828, 9.128 193.108, 5.961 198.470 C -1.123 210.463, -0.534 216.930, 8.126 222.240 C 16.288 227.244, 22.802 224.426, 29.507 212.987 C 34.105 205.146, 34.105 205.146, 37.538 206.580 C 39.427 207.369, 43.341 208.511, 46.236 209.118 C 49.508 209.804, 53.392 211.635, 56.500 213.956 C 59.250 216.011, 62.549 218.391, 63.832 219.247 C 66.116 220.771, 66.168 221.175, 66.413 239.151 C 66.845 270.858, 74.208 295.834, 90.625 321.281 C 93.031 325.011, 95 328.228, 95 328.430 C 95 328.632, 89.870 333.097, 83.600 338.352 C 77.330 343.607, 69.806 350.626, 66.880 353.951 C 62.952 358.413, 61.081 359.843, 59.732 359.415 C 48.853 355.962, 8 362.881, 8 368.176 C 8 380.252, 59.051 423.694, 87.329 435.681 C 98.523 440.426, 97.879 440.679, 106.061 428.311 C 108.313 424.907, 110.683 422.306, 111.328 422.530 C 111.972 422.754, 114.608 419.431, 117.184 415.144 C 133.697 387.671, 147.925 373.796, 155.910 377.379 C 220.314 406.282, 301.240 385.387, 340.500 329.718 C 344.190 324.486, 344.740 324.090, 347.599 324.606 C 351.139 325.246, 355.770 323.033, 409.324 295.113 C 427.376 285.701, 442.612 278, 443.181 278 C 443.787 278, 443.901 277.277, 443.455 276.250 C 443.038 275.288, 439.909 266.588, 436.502 256.918 C 423.785 220.821, 418.662 216.302, 398.362 223.276 C 398.003 223.399, 397.081 221.344, 396.313 218.709 C 394.733 213.292, 391.660 211.041, 388.298 212.840 C 383.681 215.312, 366.019 193.340, 355.468 172 C 337.480 135.616, 306.377 107.763, 269 94.566 C 261.500 91.918, 261.500 91.918, 261.402 87.362 C 261.348 84.856, 260.777 82.480, 260.133 82.082 C 258.696 81.194, 258.339 63.684, 259.403 46.345 C 261.296 15.508, 217.084 -6.900, 173 2.553 M 151.763 65.965 C 137.191 68.627, 135.854 69.749, 137.434 78.001 C 138.610 84.140, 138.740 84.351, 139.791 81.811 C 142.528 75.198, 152.603 74.859, 156.434 81.250 C 157.835 83.588, 158.999 84.825, 159.021 84 C 159.122 80.185, 160.876 86.128, 162.415 95.500 C 164.056 105.500, 164.056 105.500, 161.146 113 C 157.963 121.204, 157.995 121.307, 164.266 123.043 C 166.838 123.755, 169.197 123.764, 171.709 123.070 C 176.612 121.716, 177.217 122.594, 172.686 124.487 C 168.014 126.439, 163.056 126.406, 158.020 124.391 C 153.141 122.439, 153.132 122.256, 157.461 113.222 C 161.368 105.070, 160.532 104.156, 152.218 107.491 C 148.500 108.983, 148.500 108.983, 151.377 106.602 C 152.960 105.293, 153.946 103.722, 153.568 103.111 C 153.191 102.500, 153.358 102, 153.940 102 C 154.531 102, 154.889 100.453, 154.749 98.502 C 154.439 94.151, 151.999 93.819, 148.452 97.646 C 146.525 99.725, 146 99.930, 146 98.601 C 146 97.670, 147.105 95.805, 148.455 94.455 C 150.805 92.104, 152.825 91.562, 157.750 91.961 C 163.268 92.408, 157.944 87.453, 151.296 85.954 C 142.527 83.976, 139.910 88.992, 143.567 100.766 C 145.843 108.090, 145.971 109.880, 145.985 134.553 C 146.005 169.405, 146.071 169.517, 165.934 168.726 C 187.989 167.849, 199.150 164.453, 216.245 153.422 C 232.439 142.972, 235.700 138.900, 238.418 125.742 C 240.429 116.007, 240.430 116.015, 237.750 115.921 C 236.427 115.875, 237.837 115.027, 241.170 113.864 C 250.267 110.691, 256.791 100.026, 255.825 89.907 C 254.884 80.049, 233 90.212, 233 100.506 C 233 105.078, 232.706 105.997, 231.250 105.985 C 227.807 105.955, 227.240 104.504, 226.754 94.500 C 226.382 86.860, 225.764 83.565, 224.134 80.539 C 222.960 78.360, 222 75.997, 222 75.289 C 222 73.494, 221.415 73.645, 217.197 76.522 C 215.164 77.908, 211.826 79.314, 209.781 79.644 C 206.556 80.166, 206.192 80.489, 207.040 82.074 C 207.835 83.561, 206.968 83.350, 202.408 80.951 C 193.173 76.094, 182.877 77.006, 175.356 83.348 C 171.450 86.642, 171.378 86.639, 170.673 83.117 C 170.356 81.531, 169.818 79.125, 169.478 77.770 C 168.793 75.039, 174.147 72.010, 182.500 70.404 C 186.500 69.634, 186.500 69.634, 180.500 67.778 C 173.595 65.641, 158.688 64.701, 151.763 65.965 M 67.354 87.993 C 58.731 91.472, 54.264 102.549, 57.570 112.253 C 59.141 116.862, 59.141 116.862, 53.479 126.669 C 48.145 135.908, 47.923 136.552, 49.658 137.778 C 50.671 138.494, 53.625 140.648, 56.222 142.565 C 61.563 146.506, 60.921 147.030, 69.385 131.810 C 73.040 125.238, 73.201 125.100, 78.563 123.987 C 87.391 122.154, 93.920 114.676, 93.978 106.332 C 94.024 99.657, 92.895 99.559, 89.307 105.926 C 85.884 112, 85.884 112, 79.442 112 C 75.899 112, 72.669 112.112, 72.265 112.250 C 69.257 113.272, 64 99.114, 66.079 95.591 C 67.272 93.569, 68.028 91.695, 67.759 91.426 C 67.042 90.708, 64.286 95.225, 63.066 99.120 C 62.007 102.500, 62.007 102.500, 62.515 99 C 63.071 95.173, 66.198 90.359, 67.881 90.740 C 68.464 90.872, 69.420 90.085, 70.005 88.990 C 71.157 86.838, 70.671 86.654, 67.354 87.993 M 188.252 87.662 C 187.461 87.981, 187.236 89.091, 187.637 90.690 C 188.040 92.296, 187.790 93.512, 186.950 94.031 C 185.884 94.690, 185.872 95.141, 186.888 96.365 C 187.967 97.666, 187.528 98.042, 183.824 98.991 C 174.015 101.504, 174.660 102.536, 185.033 100.927 C 189.051 100.304, 195.412 99.967, 199.169 100.179 C 202.926 100.392, 206 100.269, 206 99.908 C 206 99.092, 200.745 98, 196.818 98 C 193.988 98, 193.941 97.923, 195.443 95.777 C 198.909 90.829, 194.035 85.328, 188.252 87.662 M 194 117.487 C 194 117.754, 195.575 118.631, 197.500 119.436 C 208.940 124.215, 170.449 139.490, 157.947 135.131 C 153.086 133.437, 153.199 134.539, 158.153 137.157 C 168.238 142.485, 182.981 139.294, 196.927 128.766 C 200.222 126.278, 202.538 125.113, 202.774 125.823 C 203.377 127.632, 204.795 127.221, 205.488 125.038 C 206.390 122.195, 204.512 119.374, 200.872 118.105 C 197.588 116.960, 194 116.637, 194 117.487 M 33.813 139.750 C 30.360 143.355, 27 148.840, 27 150.873 C 27 152.420, 38.331 159.087, 39.922 158.476 C 48.518 155.178, 55.742 148.654, 53.175 146.506 C 40.583 135.967, 38.226 135.144, 33.813 139.750 M 231.500 148.139 C 222.867 156.645, 202.616 168.840, 193.364 171.104 C 190.689 171.759, 188.382 172.385, 188.237 172.494 C 186.758 173.612, 191.391 180.021, 193.287 179.481 C 198.469 178.003, 234.435 159.403, 237.855 156.431 C 238.476 155.892, 236.833 143.996, 236.152 144.099 C 235.793 144.153, 233.700 145.971, 231.500 148.139 M 54.675 155.619 C 42.283 163.658, 41.693 164.424, 45.293 167.806 C 51.242 173.395, 56.964 172.344, 64.429 164.293 C 68.584 159.812, 67.371 163.449, 63.043 168.450 C 57.371 175.004, 56.406 183.414, 60.762 188.330 C 62.049 189.783, 62.126 190.173, 61.061 189.833 C 58.559 189.035, 55.661 184.195, 55.070 179.827 C 54.500 175.614, 54.500 175.614, 49.257 183.603 C 46.374 187.998, 42.437 193.123, 40.507 194.993 C 35.377 199.966, 37.772 202.257, 51.091 205.113 C 54.486 205.841, 57.862 207.432, 60.157 209.386 C 80.672 226.856, 114.245 233.265, 143.382 225.275 C 149.263 223.663, 149.263 223.663, 148.717 216.440 C 147.583 201.450, 146.540 200.586, 129.450 200.477 C 109.695 200.352, 96.699 196.437, 82.737 186.407 C 78.569 183.412, 77.600 183.083, 76.233 184.194 C 74.855 185.313, 74.719 185.252, 75.277 183.762 C 78.035 176.401, 76.569 165.002, 71.603 155.203 C 67.515 147.135, 67.762 147.129, 54.675 155.619 M 271.625 156.554 C 261.828 158.501, 252.678 161.720, 250.091 164.130 C 247.113 166.904, 246.455 165.962, 249.059 162.653 C 251.833 159.126, 250.911 159.302, 243.718 163.671 C 227.535 173.502, 212.396 193.710, 209.450 209.413 C 208.822 212.763, 208.947 213.234, 210.324 212.706 C 211.766 212.152, 211.869 213.387, 211.326 224.795 C 209.735 258.221, 210.627 260.445, 226 261.379 C 231.775 261.730, 239.607 262.304, 243.404 262.653 C 250.308 263.289, 250.308 263.289, 249.648 259.989 C 246.139 242.443, 249.079 219.137, 257.443 198.197 C 260.759 189.894, 260.759 189.894, 257.964 190.508 C 255.774 190.989, 254.467 190.495, 251.931 188.230 C 248.694 185.337, 248.694 185.337, 252.097 185.333 C 253.969 185.330, 259.100 184.595, 263.500 183.698 C 267.900 182.801, 273.188 181.806, 275.250 181.488 C 279 180.909, 279 180.909, 279.021 175.205 C 279.034 171.737, 280.012 166.755, 281.517 162.500 C 282.878 158.650, 283.993 155.387, 283.996 155.250 C 284.006 154.656, 277.980 155.291, 271.625 156.554 M 286.500 158.345 C 281.743 169.730, 280.626 180.989, 284.250 181.017 C 309.494 181.212, 336.806 205.111, 335.356 225.736 C 334.690 235.212, 334.690 235.212, 337.795 233.606 C 343.590 230.609, 347.092 232.272, 348.449 238.663 C 349.075 241.609, 348.873 241.916, 345.528 243.126 C 340.491 244.947, 341.402 246.890, 348.544 249.560 C 356.953 252.703, 363.389 250.312, 365.250 243.354 C 366.292 239.459, 368 237.383, 368 240.013 C 368 241.173, 381.502 234.615, 382.527 232.957 C 386.508 226.515, 384.376 220.280, 374.792 210.331 C 369.582 204.924, 363.164 197.125, 360.530 193 C 345.771 169.895, 324.329 157.123, 297.262 155.317 C 288.023 154.700, 288.023 154.700, 286.500 158.345 M 24.214 161.971 C 18.513 170.679, 18.544 170.778, 29.175 177.672 C 37.394 183.001, 43.669 183.681, 46.385 179.535 C 48.430 176.415, 48.434 175, 46.400 175 C 43.944 175, 38.062 168.561, 37.374 165.118 C 36.924 162.870, 35.608 161.375, 32.452 159.525 C 27.120 156.400, 28.039 156.127, 24.214 161.971 M 17.152 176.241 C 13.976 186.498, 14.632 188.255, 23.278 192.639 C 29.219 195.652, 34.514 194.662, 39.035 189.694 C 42.669 185.700, 42.666 185.547, 38.950 185.287 C 35.233 185.026, 27.333 180.832, 22.065 176.324 C 18.161 172.982, 18.161 172.982, 17.152 176.241 M 178.033 184.750 C 171.423 193.582, 163.147 214.480, 165.376 216.710 C 168.868 220.201, 187.114 213.940, 189.034 208.593 C 191.825 200.816, 196.030 193.385, 202.182 185.358 C 204.863 181.861, 206.931 179.002, 206.778 179.005 C 206.625 179.007, 203.800 180.121, 200.500 181.481 C 191.400 185.230, 180.820 184.337, 183.473 180.044 C 185.701 176.439, 181.594 179.992, 178.033 184.750 M 163.971 193.039 C 163.162 193.550, 159.012 195.138, 154.750 196.566 C 150.488 197.995, 147 199.240, 147.001 199.332 C 147.001 199.424, 147.884 201.824, 148.964 204.664 C 150.043 207.505, 151.229 212.776, 151.598 216.378 C 152.539 225.565, 158.917 222.732, 160.452 212.445 C 160.858 209.725, 162.254 204.144, 163.555 200.043 C 166.128 191.926, 166.144 191.665, 163.971 193.039 M 10.494 201.750 C 3.943 212.895, 8.626 222.681, 18.383 218.235 C 23.269 216.009, 31.077 200.277, 27.588 199.690 C 25.889 199.404, 23.743 198.870, 22.818 198.504 C 21.596 198.021, 20.698 198.683, 19.542 200.919 C 18.666 202.614, 17.398 203.993, 16.724 203.985 C 15.940 203.975, 15.868 203.705, 16.523 203.235 C 20.080 200.680, 20.976 197.214, 18.499 195.591 C 15.174 193.413, 15.576 193.103, 10.494 201.750 M 402.757 227.656 C 399.689 228.928, 399.113 229.600, 399.560 231.383 C 400.189 233.888, 391.703 238.258, 388.061 237.306 C 386.978 237.022, 384.846 237.678, 383.300 238.770 C 381.760 239.857, 377.777 242.115, 374.450 243.787 C 370.723 245.659, 367.954 247.806, 367.238 249.377 C 364.769 254.796, 354.854 258.090, 348.723 255.529 C 345.473 254.171, 345.236 254.190, 345.642 255.779 C 346.222 258.054, 338.707 261.178, 333.374 260.878 C 324.017 260.351, 315 267.228, 315 274.889 C 315 290.073, 331.278 291.602, 357.845 278.914 C 378.437 269.080, 377.721 269.662, 375.566 264.503 C 371.555 254.905, 385.444 249.495, 389.721 258.989 C 391.699 263.380, 427.046 249.198, 426.154 244.371 C 423.655 230.842, 413.156 223.342, 402.757 227.656 M 426.737 248.596 C 426.410 248.924, 418.572 252.793, 409.321 257.194 C 400.069 261.596, 392.376 265.314, 392.225 265.457 C 392.074 265.600, 392.872 267.868, 393.998 270.496 C 396.583 276.525, 395.915 278.581, 390.522 281.202 C 385.065 283.853, 383.402 283.177, 380.819 277.262 C 379.676 274.643, 378.636 272.375, 378.509 272.222 C 378.382 272.069, 369.777 276.047, 359.389 281.061 C 338.972 290.915, 339.736 290.792, 320.264 287.354 C 308.938 285.354, 325.910 313.666, 338.013 316.963 C 348.264 319.755, 420.185 289.075, 436.247 275.058 C 436.832 274.548, 428.708 249.375, 427.602 248.269 C 427.454 248.121, 427.065 248.268, 426.737 248.596 M 382 257.713 C 378.321 259.075, 378.075 260.008, 380.128 264.798 C 381.227 267.362, 382.286 269.619, 382.482 269.815 C 382.832 270.165, 390 267.017, 390 266.513 C 390 266.371, 389.079 264.172, 387.953 261.627 C 385.961 257.123, 385.108 256.563, 382 257.713" stroke="none" fill="#08476b" fill-rule="evenodd"/></svg>